HIERARCHY
ROOT Hips
{
	OFFSET -8.665500 -1.496397 44.816700
	CHANNELS 6 Xposition Yposition Zposition Zrotation Xrotation Yrotation
	JOINT Chest
	{
		OFFSET -0.698600 0.806100 5.350899
		CHANNELS 6 Xposition Yposition Zposition Zrotation Xrotation Yrotation
		JOINT Chest2
		{
			OFFSET 0.000000 0.000000 4.409100
			CHANNELS 6 Xposition Yposition Zposition Zrotation Xrotation Yrotation
			JOINT Neck
			{
				OFFSET 0.000000 0.000001 10.248299
				CHANNELS 6 Xposition Yposition Zposition Zrotation Xrotation Yrotation
				JOINT Head
				{
					OFFSET 0.000000 0.000000 2.173897
					CHANNELS 6 Xposition Yposition Zposition Zrotation Xrotation Yrotation
					End Site
					{
						OFFSET 0.000000 0.000001 9.966400
					}
				}
			}
			JOINT LeftCollar
			{
				OFFSET 2.100600 -0.520900 6.016098
				CHANNELS 6 Xposition Yposition Zposition Zrotation Xrotation Yrotation
				JOINT LeftShoulder
				{
					OFFSET 5.536700 0.000000 0.000000
					CHANNELS 6 Xposition Yposition Zposition Zrotation Xrotation Yrotation
					JOINT LeftElbow
					{
						OFFSET 0.000000 -0.000001 -12.362099
						CHANNELS 6 Xposition Yposition Zposition Zrotation Xrotation Yrotation
						JOINT LeftWrist
						{
							OFFSET 0.000000 -0.000001 -10.273201
							CHANNELS 6 Xposition Yposition Zposition Zrotation Xrotation Yrotation
							End Site
							{
								OFFSET 0.000000 -0.000000 -2.173901
							}
						}
					}
				}
			}
			JOINT RightCollar
			{
				OFFSET -2.899500 -1.655900 6.981701
				CHANNELS 6 Xposition Yposition Zposition Zrotation Xrotation Yrotation
				JOINT RightShoulder
				{
					OFFSET -4.387501 0.000000 0.000000
					CHANNELS 6 Xposition Yposition Zposition Zrotation Xrotation Yrotation
					JOINT RightElbow
					{
						OFFSET 0.000000 -0.000001 -10.858101
						CHANNELS 6 Xposition Yposition Zposition Zrotation Xrotation Yrotation
						JOINT RightWrist
						{
							OFFSET 0.000000 -0.000001 -12.079601
							CHANNELS 6 Xposition Yposition Zposition Zrotation Xrotation Yrotation
							End Site
							{
								OFFSET 0.000000 0.000000 -2.173901
							}
						}
					}
				}
			}
		}
	}
	JOINT LeftHip
	{
		OFFSET 2.190800 0.073900 -2.522499
		CHANNELS 6 Xposition Yposition Zposition Zrotation Xrotation Yrotation
		JOINT LeftKnee
		{
			OFFSET 0.000000 -0.000002 -20.305000
			CHANNELS 6 Xposition Yposition Zposition Zrotation Xrotation Yrotation
			JOINT LeftAnkle
			{
				OFFSET 0.000000 -0.000001 -16.771700
				CHANNELS 6 Xposition Yposition Zposition Zrotation Xrotation Yrotation
				End Site
				{
					OFFSET 0.000000 -8.738000 0.000001
				}
			}
		}
	}
	JOINT RightHip
	{
		OFFSET -2.029500 0.054300 -2.705200
		CHANNELS 6 Xposition Yposition Zposition Zrotation Xrotation Yrotation
		JOINT RightKnee
		{
			OFFSET 0.000000 -0.000002 -20.030399
			CHANNELS 6 Xposition Yposition Zposition Zrotation Xrotation Yrotation
			JOINT RightAnkle
			{
				OFFSET 0.000000 -0.000001 -17.032700
				CHANNELS 6 Xposition Yposition Zposition Zrotation Xrotation Yrotation
				End Site
				{
					OFFSET 0.000000 -8.823600 0.000001
				}
			}
		}
	}
}
MOTION
Frames: 7
Frame Time: 0.041667
-3.075997 27.180202 38.135696 2873.111315 -0.628399 -3.086540 -0.698601 0.806099 5.350902 6.298553 3.645750 10.200684 0.000001 0.000002 4.409099 -4.680259 -4.564156 -0.727688 0.000001 0.000002 10.248305 57.967658 -5.231372 -12.566681 0.000003 0.000002 2.173900 0.483315 -0.843641 5.750828 2.100601 -0.520898 6.016111 6.663554 -2.331264 9.350807 5.536695 0.000003 0.000008 161.642806 230.655297 -282.881054 0.000002 0.000002 -12.362096 -322.638930 -6.805208 0.744693 0.000004 -0.000004 -10.273200 1655.831941 183.103192 -180.876305 -2.899499 -1.655900 6.981708 -14.711857 -20.729067 29.284702 -4.387508 -0.000001 -0.000004 -364.953564 -506.593874 786.161986 0.000001 -0.000000 -10.858100 116.983819 175.757474 71.690888 -0.000009 0.000004 -12.079601 -92.069229 -176.930013 176.492416 2.190799 0.073899 -2.522499 -488.974390 -151.023624 -151.010401 -0.000004 -0.000007 -20.305006 -851.553070 12.416203 95.770782 0.000002 0.000003 -16.771708 1503.130222 -7.655149 41.869466 -2.029502 0.054293 -2.705198 -78.569053 -46.301514 -52.804490 -0.000002 -0.000001 -20.030399 -222.997166 28.151456 -131.038354 0.000000 -0.000002 -17.032698 352.301513 8.665166 -3.465780
-3.072196 27.149405 37.870594 2873.777067 -0.507275 -3.105068 -0.698602 0.806103 5.350903 5.646660 3.456192 10.211888 -0.000000 0.000002 4.409106 -4.433557 -4.613186 -0.569627 -0.000001 0.000002 10.248299 57.727891 -5.217999 -12.612851 0.000001 0.000001 2.173895 0.648290 -0.880649 5.645262 2.100601 -0.520901 6.016104 6.401483 -2.395539 9.234830 5.536697 0.000004 0.000004 162.106111 230.396296 -282.895234 0.000004 -0.000001 -12.362101 -323.262362 -6.781528 0.580732 -0.000000 -0.000002 -10.273205 1656.137715 183.096266 -180.868327 -2.899504 -1.655898 6.981700 -14.552468 -20.288937 29.197051 -4.387500 0.000000 -0.000004 -364.909905 -507.524583 786.256079 0.000002 -0.000006 -10.858100 117.512995 175.701494 71.737798 -0.000006 0.000001 -12.079600 -91.626564 -176.889236 176.532741 2.190798 0.073898 -2.522497 -488.055375 -150.719927 -150.216064 -0.000002 -0.000005 -20.305010 -852.215216 11.459095 97.027359 0.000001 0.000004 -16.771704 1503.407473 -7.951937 41.874032 -2.029501 0.054297 -2.705197 -79.127195 -46.207825 -53.449628 0.000001 -0.000001 -20.030396 -222.056212 29.347410 -131.619398 0.000002 -0.000004 -17.032700 353.669599 8.999415 -3.751416
-3.055297 27.117302 37.602997 2874.333100 -0.400104 -3.204655 -0.698602 0.806100 5.350900 5.069146 3.425149 10.352483 -0.000000 0.000002 4.409097 -4.059490 -4.660862 -0.550126 0.000001 0.000000 10.248300 57.244567 -5.267867 -12.377829 0.000000 -0.000002 2.173895 0.715339 -0.951659 5.502344 2.100600 -0.520899 6.016098 6.037613 -2.367070 9.193633 5.536697 0.000000 0.000001 162.374606 230.578744 -282.996567 0.000003 0.000004 -12.362091 -322.671906 -6.730467 0.496621 -0.000001 -0.000005 -10.273200 1655.253834 183.075052 -181.027703 -2.899500 -1.655900 6.981703 -14.708450 -20.407748 29.103986 -4.387505 -0.000001 -0.000003 -364.519328 -508.013133 786.363887 0.000005 -0.000002 -10.858109 117.826159 175.708406 71.754839 -0.000008 -0.000000 -12.079601 -91.289044 -176.750515 176.636178 2.190797 0.073900 -2.522504 -486.511533 -150.683850 -149.103330 -0.000006 -0.000006 -20.305008 -853.302746 10.455350 98.286327 0.000002 0.000005 -16.771702 1503.624618 -8.170346 41.810067 -2.029501 0.054296 -2.705201 -79.172247 -46.474233 -53.799040 -0.000002 0.000001 -20.030394 -222.314625 29.448620 -131.648590 0.000003 -0.000002 -17.032700 353.642497 9.062864 -4.287964
-3.029097 27.087305 37.322296 2874.844326 -0.257691 -3.315433 -0.698599 0.806101 5.350902 4.538836 3.371817 10.438491 0.000000 -0.000001 4.409100 -3.753936 -4.748093 -0.542365 0.000000 0.000002 10.248301 57.051341 -5.267646 -12.176591 -0.000002 -0.000003 2.173889 0.822001 -0.996373 5.288220 2.100600 -0.520899 6.016102 6.377846 -2.293307 9.464566 5.536696 -0.000001 0.000005 161.912230 230.354823 -283.312750 0.000001 0.000002 -12.362100 -323.239385 -6.670451 0.298785 -0.000004 0.000004 -10.273199 1655.904068 183.046256 -181.172762 -2.899499 -1.655900 6.981699 -14.879787 -20.204270 28.883852 -4.387500 0.000002 0.000005 -364.283549 -508.810953 786.281979 0.000001 -0.000001 -10.858093 118.213444 175.756736 71.770139 -0.000010 0.000000 -12.079601 -90.694749 -176.657488 176.696543 2.190799 0.073901 -2.522502 -485.461979 -150.485337 -148.167908 -0.000004 -0.000005 -20.305010 -853.949865 9.490241 99.412891 0.000003 0.000004 -16.771700 1503.629973 -8.228523 42.070103 -2.029500 0.054296 -2.705201 -79.691970 -46.560454 -54.611078 0.000000 -0.000004 -20.030396 -221.928446 29.893132 -131.893357 0.000005 -0.000003 -17.032700 353.913437 9.308987 -4.628380
-3.017296 27.058506 37.043396 2875.466146 -0.284436 -3.215132 -0.698600 0.806099 5.350896 3.902899 3.458703 10.300012 0.000001 0.000002 4.409103 -3.470664 -4.794596 -0.532129 0.000001 0.000005 10.248294 56.907869 -5.270263 -12.063983 0.000002 0.000000 2.173893 1.015355 -0.950506 5.077611 2.100602 -0.520894 6.016100 6.399851 -2.340017 9.460382 5.536696 -0.000001 -0.000003 162.071428 230.468095 -283.252016 -0.000002 0.000005 -12.362098 -324.208043 -6.673171 0.187584 0.000001 -0.000000 -10.273203 1656.455948 183.103015 -181.540390 -2.899496 -1.655896 6.981698 -14.677993 -19.942339 29.099997 -4.387496 0.000003 0.000004 -364.319640 -509.235900 786.464372 0.000005 -0.000009 -10.858105 118.517292 175.370899 71.807705 -0.000007 0.000001 -12.079600 -89.742750 -176.573682 176.748534 2.190800 0.073898 -2.522501 -484.911794 -150.148909 -147.618570 -0.000004 -0.000005 -20.305004 -854.391314 8.684947 100.488475 -0.000003 0.000004 -16.771706 1503.486157 -8.216613 42.208257 -2.029499 0.054297 -2.705193 -80.202738 -46.541862 -55.409128 -0.000000 0.000001 -20.030397 -221.870759 29.880988 -132.140296 0.000001 -0.000003 -17.032701 353.583129 9.281211 -4.604215
-3.001694 27.035904 36.755604 2875.910928 -0.148522 -3.253607 -0.698598 0.806096 5.350902 3.445097 3.395770 10.325205 0.000000 -0.000002 4.409103 -3.208101 -4.842561 -0.522588 0.000001 0.000007 10.248292 56.758148 -5.246399 -11.986816 0.000001 0.000001 2.173896 1.308969 -0.889897 4.978072 2.100603 -0.520896 6.016101 6.401948 -2.322762 9.412055 5.536698 0.000002 0.000003 162.340892 230.500470 -283.127515 0.000008 0.000006 -12.362092 -323.700423 -6.528769 0.304282 -0.000000 -0.000008 -10.273196 1655.799047 183.236859 -181.807546 -2.899500 -1.655895 6.981697 -14.732021 -19.894552 29.064886 -4.387498 0.000001 -0.000001 -363.707000 -510.384957 786.636056 0.000001 -0.000005 -10.858097 119.624753 175.184940 71.857927 -0.000004 -0.000005 -12.079601 -88.851083 -176.399498 176.810703 2.190800 0.073897 -2.522501 -484.404283 -149.742472 -147.012049 -0.000003 -0.000007 -20.305010 -854.538300 7.630777 101.476797 -0.000001 0.000005 -16.771702 1503.484299 -8.307607 42.472384 -2.029500 0.054290 -2.705202 -81.033576 -46.464756 -56.650262 -0.000004 0.000001 -20.030397 -222.348721 28.850910 -131.871610 -0.000000 -0.000002 -17.032698 352.583217 8.799205 -6.093830
-2.975797 27.008003 36.466896 2876.241400 -0.118958 -3.373828 -0.698602 0.806098 5.350897 3.090797 3.452961 10.412812 0.000000 0.000002 4.409105 -2.914746 -4.873471 -0.504330 0.000001 0.000003 10.248298 56.525341 -5.198318 -11.852804 -0.000000 -0.000001 2.173898 1.351047 -1.027370 4.970925 2.100600 -0.520898 6.016105 6.350658 -2.237969 9.562062 5.536695 0.000003 0.000002 162.718001 229.541566 -283.069568 0.000005 -0.000006 -12.362093 -321.345319 -6.453146 0.341598 -0.000001 0.000003 -10.273197 1654.372467 183.115008 -181.834976 -2.899500 -1.655899 6.981700 -14.685532 -19.803466 29.176700 -4.387501 0.000002 -0.000001 -363.386828 -511.000603 786.821455 -0.000007 -0.000003 -10.858089 120.419527 174.670477 71.832642 -0.000007 0.000004 -12.079596 -87.626799 -176.352042 176.856656 2.190797 0.073896 -2.522506 -483.336042 -149.644486 -146.241481 -0.000003 -0.000005 -20.305008 -855.036412 6.484141 102.495595 0.000003 0.000004 -16.771702 1503.260050 -8.580511 43.706264 -2.029501 0.054291 -2.705203 -81.364198 -46.695927 -57.527903 -0.000002 0.000003 -20.030394 -223.296438 27.631616 -131.570904 0.000002 0.000001 -17.032698 350.966894 8.542987 -6.432155
